<svg width="111" height="39" viewBox="0 0 111 39" fill="none" xmlns="http://www.w3.org/2000/svg">
<path fill-rule="evenodd" clip-rule="evenodd" d="M9.35375 1.72984C9.90318 1.31643 10.2831 0.714001 10.4215 0.0368042L25.0995 3.45968C25.0995 3.45968 24.2477 4.69259 25.0995 5.97581C25.9125 7.20054 26.9443 6.98541 26.9443 6.98541L19.9581 37.2114C19.9581 37.2114 18.7429 36.6326 17.7723 37.1129C16.8017 37.5932 16.4228 38.7192 16.4228 38.7192L2.18412 35.1609C2.18412 35.1609 2.43839 34.101 1.8706 33.1815C1.30282 32.262 0.117676 32.1121 0.117676 32.1121L7.31147 2.00127C7.31147 2.00127 8.44548 2.39143 9.35375 1.72984ZM6.21223 27.2686L16.8134 29.9105C16.899 29.9317 16.9796 29.9698 17.0506 30.0225C17.1216 30.0752 17.1817 30.1415 17.2272 30.2176C17.2728 30.2938 17.303 30.3782 17.3162 30.4662C17.3294 30.5541 17.3252 30.6438 17.304 30.7301L17.2787 30.8333C17.2576 30.9196 17.2198 31.0009 17.1676 31.0725C17.1153 31.1441 17.0496 31.2046 16.9741 31.2506C16.8986 31.2966 16.815 31.3271 16.7278 31.3404C16.6406 31.3538 16.5517 31.3497 16.4662 31.3283L5.86504 28.6864C5.77942 28.6652 5.69879 28.6271 5.62777 28.5744C5.55676 28.5217 5.49674 28.4554 5.45117 28.3793C5.40559 28.3031 5.37536 28.2187 5.36219 28.1307C5.34902 28.0428 5.35318 27.9531 5.37443 27.8668L5.39968 27.7636C5.42071 27.6772 5.45842 27.5959 5.51067 27.5242C5.56291 27.4526 5.62865 27.392 5.70413 27.346C5.77961 27.3 5.86334 27.2695 5.95053 27.2562C6.03772 27.2429 6.12665 27.2471 6.21223 27.2686ZM6.99968 23.9122L18.3491 26.741C18.4407 26.7638 18.527 26.8046 18.603 26.8611C18.679 26.9175 18.7432 26.9885 18.792 27.07C18.8408 27.1515 18.8732 27.2419 18.8873 27.336C18.9015 27.4302 18.8971 27.5262 18.8745 27.6186L18.8474 27.7287C18.8247 27.8211 18.7843 27.9081 18.7283 27.9848C18.6723 28.0614 18.6019 28.1262 18.5211 28.1754C18.4403 28.2246 18.3507 28.2573 18.2574 28.2715C18.1641 28.2858 18.0689 28.2814 17.9773 28.2585L6.62786 25.4297C6.53622 25.4069 6.44993 25.3661 6.37393 25.3097C6.29793 25.2532 6.2337 25.1822 6.18491 25.1007C6.13612 25.0192 6.10373 24.9288 6.08959 24.8347C6.07544 24.7405 6.07982 24.6445 6.10248 24.5521L6.12945 24.442C6.15208 24.3496 6.19254 24.2625 6.24853 24.1859C6.30452 24.1092 6.37493 24.0444 6.45574 23.9952C6.53656 23.946 6.62619 23.9134 6.71952 23.8991C6.81285 23.8849 6.90805 23.8893 6.99968 23.9122ZM12.6105 24.7513C12.6105 24.7513 15.8502 22.4723 16.4634 21.9296C18.0068 20.5632 19.4441 19.0754 19.4441 19.0754C19.4441 19.0754 20.9141 17.4785 21.3318 15.815C21.7742 14.0537 21.1654 12.2201 21.1654 12.2201C21.1654 12.2201 20.5655 8.75095 16.5664 7.49272C13.3603 6.64841 11.7912 7.42259 10.1021 8.94909C9.0605 10.1274 8.5094 11.0998 8.21413 12.2095C7.67456 14.2382 7.90716 16.2242 9.96362 20.2687C10.9907 22.2902 12.6113 24.7513 12.6113 24.7513H12.6105ZM104.452 11.1653L109.05 11.2911C110.189 11.6816 110.848 12.5492 110.376 14.625L106.791 32.0807C106.479 33.1382 106.204 34.3011 104.296 34.5968H98.9956C97.2193 34.0741 97.2632 32.7871 97.7484 30.1936L100.866 15.0968C101.543 12.8931 102.171 11.2709 104.452 11.1653ZM105.952 14.0301C106.687 14.1716 107.376 14.3083 106.962 15.762L103.887 30.3194C103.698 31.0648 102.904 31.7661 102.137 31.7743C101.316 31.7834 100.802 31.3497 100.966 30.2988L104.267 15.2191C104.43 14.4753 105.322 13.9089 105.952 14.0301ZM85.1206 34.4395H88.5504L90.8889 23.1169H92.7596C92.7596 23.1169 93.2342 23.0654 93.3832 23.2742C93.5683 23.5335 93.3832 24.2178 93.3832 24.2178L91.3566 34.4395H94.7863C94.7863 34.4395 96.9187 24.7853 96.9689 24.375C97.0191 23.9647 97.0553 23.1536 96.6571 22.4879C96.372 22.0113 95.4099 21.7016 95.4099 21.7016C95.4099 21.7016 96.3738 21.478 96.9689 20.9153C97.4561 20.4281 97.8289 19.837 98.0602 19.1855C98.2022 18.8238 98.9956 14.625 98.9956 14.625C98.9956 14.625 99.2842 13.2083 98.6838 12.2661C98.5063 11.9698 98.2541 11.7263 97.9528 11.5606C97.6515 11.3948 97.312 11.3127 96.9689 11.3226H89.9535L85.1206 34.4395ZM91.5125 20.4436L92.7596 14.3105C92.7596 14.3105 94.3342 14.2831 94.6304 14.3105C94.8445 14.3301 95.1048 14.338 95.254 14.4678C95.3102 14.5317 95.353 14.6065 95.3797 14.6876C95.4065 14.7687 95.4168 14.8543 95.4099 14.9395C95.4099 15.0108 94.6304 19.1855 94.6304 19.1855C94.5888 19.4686 94.482 19.7378 94.3186 19.9718C94.1377 20.1623 93.927 20.3217 93.695 20.4436H91.5125ZM78.1051 11.3226L74.0518 30.8226C73.966 31.3428 73.9139 31.8681 73.8959 32.3952C73.8959 33.2016 74.0381 33.9185 74.6754 34.2823C75.3072 34.643 75.7523 34.5782 76.0785 34.5968C76.4046 34.6153 79.4902 34.619 79.82 34.5968C80.47 34.5769 81.108 34.4159 81.6908 34.125C82.1718 33.8841 82.54 33.4227 82.7821 33.0242C82.9733 32.6736 83.13 32.3049 83.2498 31.9234L87.615 11.3226H84.3411C84.3411 11.3226 80.3828 30.2134 80.2877 30.5081C80.183 30.8459 80.0251 31.1645 79.82 31.4516C79.4721 31.8713 78.0584 31.8877 77.6375 31.4516C77.4529 31.2602 77.5355 30.6259 77.6375 30.0363C77.7394 29.4467 81.5349 11.3226 81.5349 11.3226H78.1051ZM65.7891 34.4395H69.3748L73.5841 14.1532H76.0785L76.702 11.3226H68.2835L67.6599 14.1532H70.1543L65.7891 34.4395ZM51.7582 34.4395H54.7203L57.6824 20.2863L58.306 34.4395H61.8917L66.7245 11.3226H63.7625L60.6445 26.1049L60.3327 11.3226H56.5911L51.7582 34.4395ZM36.1684 11.3226L33.9858 34.5968H38.9745L46.7695 11.3226H43.1838L37.4155 29.879L38.195 23.2742L39.754 11.3226H36.1684ZM24.0082 34.5968L28.6852 11.3226H35.3889L34.7653 14.1532H31.6473L30.8678 17.4557H33.9858L33.5181 20.129H30.4001L28.0616 31.4516H31.1796L30.556 34.5968H24.0082ZM43.3397 34.5968L48.0167 11.3226H54.7203L54.0967 14.1532H50.9787L50.1992 17.4557H53.3172L52.8495 20.129H49.7316L47.3931 31.4516H50.511L49.8875 34.5968H43.3397ZM17.7123 11.3794C18.3242 11.9835 18.7447 12.7572 18.9207 13.6025C19.0967 14.4477 19.0202 15.3267 18.7009 16.1281C18.3816 16.9295 17.8339 17.6174 17.127 18.1048C16.4201 18.5922 15.5858 18.8572 14.7296 18.8662C13.8734 18.8753 13.0337 18.628 12.3169 18.1556C11.6 17.6833 11.0381 17.0071 10.7023 16.2126C10.3664 15.4181 10.2717 14.5409 10.4301 13.6921C10.5885 12.8433 10.9929 12.0609 11.5921 11.444C12.3952 10.6168 13.4912 10.1453 14.6389 10.1331C15.7867 10.121 16.8922 10.5693 17.7123 11.3794ZM13.0214 13.2424L12.9998 11.106C12.9998 11.106 12.9739 10.7615 13.2303 10.6289C13.5109 10.5265 13.7616 10.8019 13.7616 10.8019L15.3067 12.329L17.2439 11.8936C17.2439 11.8936 17.6753 11.7263 17.8917 11.9463C18.1081 12.1663 17.8978 12.5398 17.8978 12.5398L16.9744 14.3294L18.1703 16.2165C18.2225 16.2986 18.2456 16.3961 18.2359 16.4932C18.2262 16.5902 18.1843 16.6811 18.117 16.7511C17.9689 16.9034 17.6474 16.8746 17.6474 16.8746L15.5272 16.6591L14.3068 18.1555C14.3068 18.1555 14.0083 18.484 13.7803 18.4575C13.5376 18.4296 13.3642 18.0465 13.3642 18.0465L12.9901 15.9137L11.2757 15.1597C11.2757 15.1597 10.7204 15.0811 10.6833 14.6911C10.6553 14.411 11.0891 14.1532 11.0891 14.1532L13.0214 13.2424Z" fill="white"/>
</svg>
