<svg width="402" height="140" viewBox="0 0 402 140" fill="none" xmlns="http://www.w3.org/2000/svg">
<path fill-rule="evenodd" clip-rule="evenodd" d="M33.8763 6.20966C35.8662 4.7256 37.2421 2.56304 37.7433 0.13208L90.9016 12.4193C90.9016 12.4193 87.8166 16.8451 90.9016 21.4516C93.846 25.848 97.5826 25.0758 97.5826 25.0758L72.2814 133.579C72.2814 133.579 67.8803 131.502 64.3651 133.226C60.8498 134.95 59.4778 138.992 59.4778 138.992L7.91062 126.218C7.91062 126.218 8.83149 122.414 6.7752 119.113C4.7189 115.812 0.426758 115.274 0.426758 115.274L26.48 7.18402C26.48 7.18402 30.5869 8.58458 33.8763 6.20966ZM22.4989 97.8871L60.8922 107.371C61.2023 107.447 61.4943 107.584 61.7515 107.773C62.0087 107.962 62.226 108.2 62.3911 108.474C62.5561 108.747 62.6656 109.05 62.7133 109.366C62.761 109.681 62.7459 110.003 62.669 110.313L62.5775 110.684C62.501 110.993 62.3643 111.285 62.175 111.542C61.9857 111.799 61.7476 112.017 61.4743 112.182C61.2011 112.347 60.898 112.456 60.5823 112.504C60.2667 112.552 59.9447 112.537 59.6348 112.461L21.2415 102.977C20.9315 102.901 20.6395 102.764 20.3822 102.575C20.125 102.386 19.9077 102.148 19.7426 101.874C19.5776 101.601 19.4681 101.298 19.4204 100.982C19.3727 100.666 19.3878 100.344 19.4647 100.035L19.5562 99.6642C19.6323 99.3541 19.7689 99.0621 19.9581 98.8049C20.1473 98.5476 20.3854 98.3303 20.6588 98.1652C20.9321 98.0001 21.2354 97.8906 21.5511 97.8428C21.8669 97.7951 22.189 97.8102 22.4989 97.8871ZM25.3508 85.8386L66.4541 95.9931C66.786 96.0751 67.0984 96.2216 67.3736 96.4243C67.6488 96.627 67.8814 96.8819 68.0581 97.1744C68.2348 97.467 68.3521 97.7915 68.4034 98.1294C68.4546 98.4672 68.4388 98.8119 68.3568 99.1437L68.2586 99.5389C68.1766 99.8706 68.0301 100.183 67.8274 100.458C67.6247 100.733 67.3697 100.966 67.0771 101.142C66.7845 101.319 66.4599 101.436 66.122 101.487C65.784 101.539 65.4393 101.523 65.1075 101.441L24.0042 91.2862C23.6723 91.2043 23.3598 91.0579 23.0846 90.8552C22.8093 90.6525 22.5767 90.3976 22.4 90.105C22.2233 89.8125 22.106 89.488 22.0548 89.15C22.0035 88.8121 22.0194 88.4674 22.1014 88.1356L22.1991 87.7405C22.2811 87.4086 22.4276 87.0962 22.6304 86.821C22.8331 86.5458 23.0882 86.3133 23.3808 86.1367C23.6735 85.9601 23.9981 85.8428 24.3361 85.7917C24.6741 85.7406 25.0189 85.7565 25.3508 85.8386ZM45.671 88.8509C45.671 88.8509 57.404 80.6699 59.6246 78.7218C65.2142 73.8167 70.4199 68.4758 70.4199 68.4758C70.4199 68.4758 75.7436 62.7431 77.2562 56.7717C78.8585 50.4491 76.6537 43.8668 76.6537 43.8668C76.6537 43.8668 74.4811 31.4136 59.9978 26.8969C48.3867 23.866 42.7039 26.6451 36.5864 32.1249C32.8143 36.3548 30.8184 39.8452 29.749 43.829C27.7949 51.1113 28.6373 58.2406 36.0851 72.7593C39.8047 80.0162 45.6738 88.8509 45.6738 88.8509H45.671ZM378.286 40.0806L394.937 40.5322C399.063 41.9339 401.45 45.0484 399.741 52.5L386.755 115.161C385.626 118.958 384.633 123.132 377.722 124.194H358.525C352.092 122.317 352.251 117.697 354.008 108.387L365.3 54.1935C367.751 46.283 370.024 40.4594 378.286 40.0806ZM383.718 50.3644C386.381 50.8725 388.877 51.3631 387.375 56.5814L376.241 108.839C375.554 111.515 372.679 114.032 369.903 114.062C366.93 114.094 365.066 112.537 365.66 108.765L377.616 54.6327C378.206 51.9626 381.437 49.9292 383.718 50.3644ZM308.275 123.629H320.697L329.166 82.9839H335.941C335.941 82.9839 337.66 82.7987 338.199 83.5484C338.87 84.4793 338.199 86.9355 338.199 86.9355L330.859 123.629H343.281C343.281 123.629 351.003 88.9728 351.185 87.5C351.367 86.0272 351.498 83.1154 350.056 80.7258C349.023 79.0147 345.539 77.9032 345.539 77.9032C345.539 77.9032 349.03 77.1005 351.185 75.0806C352.95 73.3315 354.3 71.2097 355.138 68.871C355.652 67.5726 358.525 52.5 358.525 52.5C358.525 52.5 359.57 47.4143 357.396 44.0322C356.753 42.9685 355.84 42.0945 354.749 41.4994C353.657 40.9043 352.428 40.6095 351.185 40.6451H325.778L308.275 123.629ZM331.424 73.3871L335.941 51.371C335.941 51.371 341.643 51.2727 342.716 51.371C343.491 51.4415 344.434 51.4697 344.975 51.9355C345.178 52.1651 345.333 52.4336 345.43 52.7246C345.527 53.0156 345.564 53.3233 345.539 53.629C345.539 53.8847 342.716 68.871 342.716 68.871C342.565 69.8871 342.179 70.8538 341.587 71.6935C340.932 72.3775 340.169 72.9496 339.329 73.3871H331.424ZM282.868 40.6451L268.188 110.645C267.878 112.513 267.689 114.398 267.623 116.29C267.623 119.185 268.138 121.759 270.447 123.065C272.735 124.36 274.347 124.127 275.528 124.194C276.709 124.26 287.884 124.273 289.079 124.194C291.432 124.122 293.743 123.544 295.854 122.5C297.596 121.635 298.929 119.979 299.806 118.548C300.499 117.29 301.066 115.966 301.5 114.597L317.309 40.6451H305.452C305.452 40.6451 291.117 108.458 290.772 109.516C290.393 110.729 289.821 111.872 289.079 112.903C287.818 114.41 282.698 114.469 281.174 112.903C280.506 112.216 280.805 109.939 281.174 107.823C281.543 105.706 295.289 40.6451 295.289 40.6451H282.868ZM238.264 123.629H251.25L266.494 50.8064H275.528L277.786 40.6451H247.298L245.039 50.8064H254.073L238.264 123.629ZM187.449 123.629H198.177L208.904 72.8226L211.163 123.629H224.149L241.652 40.6451H230.924L219.632 93.7097L218.503 40.6451H204.952L187.449 123.629ZM130.989 40.6451L123.084 124.194H141.152L169.382 40.6451H156.396L135.506 107.258L138.329 83.5484L143.975 40.6451H130.989ZM86.9493 124.194L103.888 40.6451H128.166L125.907 50.8064H114.615L111.792 62.6613H123.084L121.39 72.2581H110.098L101.629 112.903H112.921L110.663 124.194H86.9493ZM156.961 124.194L173.899 40.6451H198.177L195.918 50.8064H184.626L181.803 62.6613H193.095L191.402 72.2581H180.109L171.64 112.903H182.932L180.674 124.194H156.961ZM64.1477 40.8489C66.3638 43.0177 67.8868 45.7949 68.5242 48.8293C69.1615 51.8636 68.8845 55.0188 67.7282 57.8957C66.5719 60.7726 64.5882 63.242 62.0281 64.9916C59.468 66.7412 56.4464 67.6924 53.3455 67.7249C50.2447 67.7573 47.2038 66.8696 44.6077 65.174C42.0115 63.4784 39.9765 61.051 38.7602 58.1989C37.5439 55.3468 37.2009 52.1982 37.7745 49.1512C38.3482 46.1041 39.8127 43.2957 41.9829 41.081C44.8914 38.1115 48.8606 36.4189 53.0173 36.3753C57.1739 36.3318 61.1777 37.941 64.1477 40.8489ZM47.1593 47.5368L47.0808 39.8678C47.0808 39.8678 46.987 38.631 47.9158 38.1551C48.9321 37.7876 49.84 38.776 49.84 38.776L55.4358 44.2581L62.4516 42.6949C62.4516 42.6949 64.0139 42.0943 64.7976 42.884C65.5812 43.6738 64.8196 45.0145 64.8196 45.0145L61.4754 51.4387L65.8065 58.2129C65.9955 58.5077 66.0792 58.8578 66.0442 59.2062C66.0091 59.5546 65.8573 59.8809 65.6134 60.1322C65.077 60.6787 63.9128 60.5754 63.9128 60.5754L56.2342 59.802L51.8144 65.1734C51.8144 65.1734 50.7332 66.3527 49.9078 66.2578C49.0287 66.1573 48.4008 64.7822 48.4008 64.7822L47.0458 57.1262L40.8368 54.4193C40.8368 54.4193 38.8257 54.1371 38.6913 52.7371C38.5902 51.7317 40.161 50.8064 40.161 50.8064L47.1593 47.5368Z" fill="#6307A2"/>
</svg>
