<?xml version="1.0" encoding="UTF-8"?>
<svg version="1.1" xmlns="http://www.w3.org/2000/svg" width="600" height="200">
<path d="M0 0 C1.24645798 -0.00838898 2.49291595 -0.01677795 3.77714539 -0.02542114 C5.15574959 -0.01445473 6.53435065 -0.00308879 7.91294861 0.00863647 C9.36678407 0.00649027 10.82061786 0.00261207 12.27444458 -0.00286865 C16.22073333 -0.01256223 20.16656966 0.00274052 24.1128037 0.02303743 C28.24071441 0.0406027 32.36861104 0.03708348 36.49655151 0.03631592 C43.42774529 0.03818891 50.35876393 0.05555356 57.28990173 0.08285522 C65.30724781 0.11431843 73.32440216 0.12485099 81.34180552 0.12338412 C89.05079822 0.12216408 96.75972839 0.13236936 104.46870232 0.14896774 C107.75133693 0.15603476 111.03394941 0.15969443 114.31659126 0.16075516 C118.180117 0.16276201 122.04348133 0.1749549 125.90695381 0.19508743 C127.32635001 0.20093625 128.74576479 0.2033884 130.16517258 0.20223236 C132.09947169 0.201253 134.03376372 0.21378396 135.96801758 0.22705078 C137.59318094 0.23207831 137.59318094 0.23207831 139.25117588 0.23720741 C141.92051697 0.49447632 141.92051697 0.49447632 144.92051697 2.49447632 C146.33182024 10.72035827 144.2501021 19.8443046 143.04551697 27.99447632 C142.87149353 29.25517944 142.69747009 30.51588257 142.51817322 31.81478882 C142.34414978 33.01877319 142.17012634 34.22275757 141.99082947 35.46322632 C141.83372498 36.55055054 141.67662048 37.63787476 141.51475525 38.75814819 C140.92051697 41.49447632 140.92051697 41.49447632 138.92051697 44.49447632 C136.30337429 44.86641312 136.30337429 44.86641312 132.91622925 44.86196899 C130.99584587 44.87032272 130.99584587 44.87032272 129.03666687 44.87884521 C127.60984619 44.86982191 126.18302736 44.86050411 124.75621033 44.85092163 C123.26001872 44.85171211 121.76382732 44.85380816 120.26763916 44.8571167 C116.19747489 44.86226186 112.12756236 44.84869379 108.05743861 44.8315897 C103.80579527 44.81658608 99.55415562 44.81772851 95.30249023 44.81692505 C88.16267074 44.81322955 81.02294722 44.79824724 73.88316345 44.77572632 C64.70677708 44.74684113 55.530468 44.73650268 46.3540411 44.73204422 C38.47946892 44.72806966 30.60491368 44.71556725 22.73035359 44.70169735 C20.19186838 44.69759163 17.65338377 44.69466944 15.11489677 44.69190216 C11.13326009 44.68702127 7.15167067 44.67683845 3.1700573 44.66246414 C1.70466539 44.65792827 0.23926711 44.65509945 -1.22613144 44.65405655 C-3.21815674 44.65232018 -5.2101728 44.64382249 -7.20217896 44.63491821 C-8.31955979 44.63194355 -9.43694063 44.62896889 -10.5881815 44.62590408 C-13.07948303 44.49447632 -13.07948303 44.49447632 -14.07948303 43.49447632 C-14.82877148 35.19943952 -13.43484688 26.81896635 -12.32948303 18.61947632 C-12.17221741 17.31494507 -12.01495178 16.01041382 -11.85292053 14.66635132 C-11.60155334 12.79076538 -11.60155334 12.79076538 -11.34510803 10.87728882 C-11.19847717 9.74694214 -11.05184631 8.61659546 -10.90077209 7.45199585 C-9.2263646 1.42233701 -5.97966815 -0.0060112 0 0 Z " fill="#639195" transform="translate(419.07948303222656,129.50552368164063)"/>
<path d="M0 0 C0.598125 0.53625 1.19625 1.0725 1.8125 1.625 C1.8125 2.285 1.8125 2.945 1.8125 3.625 C2.53953125 3.2640625 3.2665625 2.903125 4.015625 2.53125 C11.29636131 -0.82908983 17.76824818 -2.86196776 25.8125 -1.375 C29 0.625 29 0.625 30.8125 3.625 C31.83779115 9.22915669 31.75676166 14.10679021 30.8515625 19.73828125 C30.741539 20.47451218 30.6315155 21.2107431 30.51815796 21.96928406 C30.28597202 23.51031157 30.04874025 25.05058671 29.80664062 26.59008789 C29.43596996 28.9472297 29.07993172 31.30622379 28.7265625 33.66601562 C28.49823077 35.16939788 28.2690928 36.67265795 28.0390625 38.17578125 C27.93171783 38.87890945 27.82437317 39.58203766 27.71377563 40.30647278 C27.25901254 43.18973642 26.73777835 45.84916496 25.8125 48.625 C20.8625 48.625 15.9125 48.625 10.8125 48.625 C11.93579785 38.30021978 13.11686911 27.98804563 14.4453125 17.6875 C14.85218178 14.80810939 14.85218178 14.80810939 14.8125 12.625 C13.554375 12.74875 12.29625 12.8725 11 13 C10.29230469 13.06960937 9.58460938 13.13921875 8.85546875 13.2109375 C6.51261858 13.55165391 6.51261858 13.55165391 3.8125 15.625 C3.19513555 18.13932275 2.76275847 20.48526499 2.42578125 23.0390625 C2.31904587 23.76870209 2.21231049 24.49834167 2.1023407 25.25009155 C1.76415114 27.58181052 1.44439085 29.91563921 1.125 32.25 C0.89899502 33.83090241 0.6717961 35.41163464 0.44335938 36.9921875 C-0.11640893 40.86781968 -0.65118996 44.74576136 -1.1875 48.625 C-6.4675 48.625 -11.7475 48.625 -17.1875 48.625 C-16.89875 46.68496094 -16.61 44.74492188 -16.3125 42.74609375 C-15.93723852 40.18493413 -15.56225298 37.62373407 -15.1875 35.0625 C-14.90132813 33.14727539 -14.90132813 33.14727539 -14.609375 31.19335938 C-14.42890625 29.95263672 -14.2484375 28.71191406 -14.0625 27.43359375 C-13.89492188 26.29720459 -13.72734375 25.16081543 -13.5546875 23.98999023 C-13.17475222 20.50817638 -13.12524985 17.12462556 -13.1875 13.625 C-17.19925602 12.02029759 -20.20463733 13.4073687 -24.1875 14.625 C-24.30343506 15.47731201 -24.41937012 16.32962402 -24.53881836 17.20776367 C-24.97182229 20.3855062 -25.40622175 23.56305401 -25.84155273 26.74047852 C-26.02928261 28.11279849 -26.21646448 29.48519354 -26.40307617 30.85766602 C-26.67220477 32.83629948 -26.94350158 34.81463764 -27.21484375 36.79296875 C-27.37718506 37.98172607 -27.53952637 39.1704834 -27.70678711 40.39526367 C-28.11712675 43.15218754 -28.64086667 45.89183336 -29.1875 48.625 C-34.1375 48.625 -39.0875 48.625 -44.1875 48.625 C-43.59206532 39.21983852 -42.47729048 30.01174272 -41.03076172 20.70996094 C-40.68267687 18.46894809 -40.34279753 16.22679479 -40.00390625 13.984375 C-38.33202723 3.05858168 -38.33202723 3.05858168 -37.1875 -0.375 C-32.8975 -0.375 -28.6075 -0.375 -24.1875 -0.375 C-23.8575 0.615 -23.5275 1.605 -23.1875 2.625 C-22.66542969 2.33625 -22.14335937 2.0475 -21.60546875 1.75 C-14.56677332 -1.80016512 -7.4451553 -3.21163562 0 0 Z " fill="#050505" transform="translate(443.1875,66.375)"/>
<path d="M0 0 C4.47904099 -0.087842 8.95785724 -0.14067447 13.4375 -0.1875 C14.69755859 -0.21263672 15.95761719 -0.23777344 17.25585938 -0.26367188 C25.78007608 -0.3304412 33.18005226 -0.16974387 39.9375 5.4375 C44.53826093 11.15359691 44.56416175 15.83878552 44 23 C42.84158268 31.37219794 40.54572271 37.4570263 34 43 C28.19829082 46.52652911 22.92567747 47.17714313 16.25 47.5625 C13.8575 47.706875 11.465 47.85125 9 48 C8.01 54.27 7.02 60.54 6 67 C0.72 67 -4.56 67 -10 67 C-8.2626374 52.99441903 -6.31529497 39.02207954 -4.28326416 25.05661011 C-4.01097736 23.18477577 -3.73961574 21.31280662 -3.46917725 19.44070435 C-3.08397198 16.77773671 -2.69493359 14.11535805 -2.3046875 11.453125 C-2.18810791 10.64465622 -2.07152832 9.83618744 -1.95141602 9.0032196 C-1.49111198 5.88980923 -0.99750457 2.99251371 0 0 Z M14 13 C11.82191974 20.26026753 11.40277493 27.45326965 11 35 C18.5559861 35.53174786 18.5559861 35.53174786 25 32 C28.15234599 27.54323498 28.34978054 23.54881093 28.3984375 18.26953125 C28.14836475 15.97084855 28.14836475 15.97084855 26.83203125 14.2109375 C24.25913742 12.51030405 22.36469497 12.70477547 19.3125 12.8125 C18.31863281 12.83957031 17.32476562 12.86664063 16.30078125 12.89453125 C15.16189453 12.94673828 15.16189453 12.94673828 14 13 Z " fill="#050505" transform="translate(224,48)"/>
<path d="M0 0 C5.28 0 10.56 0 16 0 C16.41572266 3.33931641 16.41572266 3.33931641 16.83984375 6.74609375 C17.11021886 8.89409314 17.38206323 11.04190178 17.65405273 13.18969727 C17.84276742 14.68624864 18.02994619 16.18299451 18.21557617 17.67993164 C18.48215765 19.82751205 18.7541961 21.9743399 19.02734375 24.12109375 C19.18968506 25.4145874 19.35202637 26.70808105 19.51928711 28.04077148 C19.68447339 30.87933264 19.68447339 30.87933264 21 32 C25.45077928 21.49249016 28.91162003 10.9909993 32 0 C37.28 0 42.56 0 48 0 C46.76188244 6.7675746 45.17186901 13.1431852 42.875 19.625 C42.57150635 20.48456299 42.2680127 21.34412598 41.95532227 22.22973633 C37.74019747 33.83661726 32.39563217 45.06078335 25 55 C24.236875 56.051875 23.47375 57.10375 22.6875 58.1875 C15.44848085 65.76321772 6.80959042 70.07102431 -3.6875 70.3125 C-7.77998581 70.20329041 -11.20318807 69.64186462 -15 68 C-14.34 64.37 -13.68 60.74 -13 57 C-9.14412913 56.22882583 -6.86488715 55.96645236 -3.125 56.1875 C2.09722855 56.25764934 4.76689787 54.99844735 9 52 C9.66 51.34 10.32 50.68 11 50 C9.35 49.67 7.7 49.34 6 49 C5.14181816 42.66504516 4.28774332 36.32954638 3.43652344 29.99365234 C3.14645441 27.8382513 2.85544493 25.68297661 2.56347656 23.52783203 C2.14400973 20.43034058 1.72792542 17.33241073 1.3125 14.234375 C1.18125732 13.27070007 1.05001465 12.30702515 0.91479492 11.31414795 C0.79467041 10.41351624 0.6745459 9.51288452 0.55078125 8.58496094 C0.44419189 7.79442322 0.33760254 7.0038855 0.2277832 6.18939209 C0 4 0 4 0 0 Z " fill="#050505" transform="translate(323,66)"/>
<path d="M0 0 C0.83869629 -0.00644531 1.67739258 -0.01289062 2.54150391 -0.01953125 C8.45797503 0.10095299 13.44257249 1.33284632 18.9375 3.5 C17.8127652 13.99259174 16.41162479 24.43470437 14.875 34.875 C14.7006543 36.06971924 14.52630859 37.26443848 14.34667969 38.49536133 C14.17942383 39.61837646 14.01216797 40.7413916 13.83984375 41.8984375 C13.69023193 42.90567871 13.54062012 43.91291992 13.38647461 44.95068359 C12.9375 47.5 12.9375 47.5 11.9375 50.5 C7.6475 50.5 3.3575 50.5 -1.0625 50.5 C-1.3925 49.51 -1.7225 48.52 -2.0625 47.5 C-2.619375 47.78875 -3.17625 48.0775 -3.75 48.375 C-9.19212389 51.02251973 -13.01298769 52.19420633 -19.0625 51.5 C-23.04905998 50.12003693 -26.1751756 48.33186697 -28.37109375 44.6015625 C-31.62953226 34.69738217 -29.18259019 20.21385745 -24.87890625 10.953125 C-18.83043464 1.83758139 -10.31643046 0.07578645 0 0 Z M-11.0625 16.5 C-12.75509304 20.72543762 -13.45508636 24.66201256 -13.8125 29.1875 C-13.91046875 30.30511719 -14.0084375 31.42273438 -14.109375 32.57421875 C-14.32339688 35.69506318 -14.32339688 35.69506318 -12.0625 38.5 C-7.91212402 38.88429407 -4.42899355 39.11217549 -1.0625 36.5 C-0.26025965 33.85679765 0.27295699 31.5167835 0.6875 28.8125 C0.81253906 28.11705078 0.93757813 27.42160156 1.06640625 26.70507812 C1.82340786 22.25041482 2.05585193 18.01512609 1.9375 13.5 C-3.28375244 10.88937378 -7.24605489 12.47153016 -11.0625 16.5 Z " fill="#050505" transform="translate(298.0625,64.5)"/>
<path d="M0 0 C4.0478898 2.44400894 6.20181706 5.15623243 7.69140625 9.625 C8.11159884 15.08750368 7.40052433 18.83889139 4.69140625 23.625 C0.40265056 27.02026492 -3.08013714 28.76137203 -8.5390625 28.72265625 C-9.34150391 28.71943359 -10.14394531 28.71621094 -10.97070312 28.71289062 C-12.22077148 28.70032227 -12.22077148 28.70032227 -13.49609375 28.6875 C-14.34107422 28.68298828 -15.18605469 28.67847656 -16.05664062 28.67382812 C-18.1406553 28.66205403 -20.22463352 28.6441189 -22.30859375 28.625 C-21.32932635 33.00821437 -21.32932635 33.00821437 -18.234375 36.0234375 C-14.22783544 36.84721199 -10.55211792 36.58998526 -6.49609375 36.25 C-5.70783203 36.19328125 -4.91957031 36.1365625 -4.10742188 36.078125 C-2.17369414 35.93749026 -0.2410078 35.78266112 1.69140625 35.625 C1.36140625 39.585 1.03140625 43.545 0.69140625 47.625 C-9.9586511 50.16829728 -20.68081613 51.37123009 -31.05078125 47.078125 C-34.36348843 44.94607124 -35.57217361 42.71965062 -36.79296875 39.02734375 C-38.95714255 28.94426128 -36.97147973 16.35207031 -31.74609375 7.5 C-24.37726235 -2.00758978 -10.99776539 -4.5704999 0 0 Z M-18.30859375 11.625 C-20.14894728 14.16644059 -20.36191589 15.23397098 -19.93359375 18.375 C-19.72734375 19.1175 -19.52109375 19.86 -19.30859375 20.625 C-15.61230406 20.84242881 -12.85078203 20.83264658 -9.37109375 19.5 C-7.00077169 17.73560481 -7.00077169 17.73560481 -6.80859375 14.5625 C-6.97359375 13.593125 -7.13859375 12.62375 -7.30859375 11.625 C-11.37251703 8.91571781 -14.31240862 8.96087658 -18.30859375 11.625 Z " fill="#050505" transform="translate(515.30859375,66.375)"/>
<path d="M0 0 C8.25 0 16.5 0 25 0 C24.34 3.96 23.68 7.92 23 12 C14.75 12 6.5 12 -2 12 C-1.34 8.04 -0.68 4.08 0 0 Z " fill="#050505" transform="translate(372,84)"/>
<path d="M0 0 C6.27 0 12.54 0 19 0 C18.44912716 6.51866188 17.53808217 12.64259371 16 19 C15.34 19 14.68 19 14 19 C12.68846237 17.53190495 11.45005925 15.99804216 10.25 14.4375 C7.74236852 11.21144125 5.21298211 8.05533462 2.5 5 C0 2 0 2 0 0 Z " fill="#73AD72" transform="translate(38,132)"/>
<path d="M0 0 C5.94 0 11.88 0 18 0 C17.50584892 6.58868105 16.79840318 12.64564211 15 19 C8.56638791 14.17479093 1.98585987 7.94343948 0 0 Z " fill="#72AC76" transform="translate(61,132)"/>
<path d="M0 0 C6.27 0 12.54 0 19 0 C16.99107143 14.33035714 16.99107143 14.33035714 16 19 C15.34 19 14.68 19 14 19 C12.39365985 17.26608049 10.8624713 15.461909 9.375 13.625 C8.55773438 12.62726563 7.74046875 11.62953125 6.8984375 10.6015625 C5 8 5 8 5 6 C4.34 6 3.68 6 3 6 C2.01 4.02 1.02 2.04 0 0 Z " fill="#72AD71" transform="translate(46,88)"/>
<path d="M0 0 C6.27 0 12.54 0 19 0 C17.875 10.125 17.875 10.125 16.9375 14.5625 C16.76089844 15.40941406 16.58429688 16.25632812 16.40234375 17.12890625 C16.26957031 17.74636719 16.13679688 18.36382812 16 19 C11.48536325 15.47831855 8.034908 11.8343174 4.625 7.25 C4.17511719 6.66089844 3.72523437 6.07179688 3.26171875 5.46484375 C0 1.15223689 0 1.15223689 0 0 Z " fill="#70A97D" transform="translate(68,88)"/>
<path d="M0 0 C5.94 0 11.88 0 18 0 C17.50584892 6.58868105 16.79840318 12.64564211 15 19 C11.44022723 16.30997974 8.59123868 13.55070387 5.8125 10.0625 C5.13832031 9.22847656 4.46414062 8.39445312 3.76953125 7.53515625 C2 5 2 5 0 0 Z " fill="#6493A3" transform="translate(113,88)"/>
<path d="M0 0 C6.27 0 12.54 0 19 0 C18.71125 2.578125 18.4225 5.15625 18.125 7.8125 C18.03879395 8.62050049 17.95258789 9.42850098 17.86376953 10.26098633 C17.43619512 13.86373011 17.04252059 15.93621912 15 19 C9.34918257 12.98501878 4.3970063 6.99011258 0 0 Z " fill="#6A9F91" transform="translate(90,88)"/>
<path d="M0 0 C6.27 0 12.54 0 19 0 C16.99107143 14.33035714 16.99107143 14.33035714 16 19 C11.48536325 15.47831855 8.034908 11.8343174 4.625 7.25 C4.17511719 6.66089844 3.72523437 6.07179688 3.26171875 5.46484375 C0 1.15223689 0 1.15223689 0 0 Z " fill="#6FA782" transform="translate(72,66)"/>
<path d="M0 0 C6.27 0 12.54 0 19 0 C18.01 6.27 17.02 12.54 16 19 C15.34 19 14.68 19 14 19 C12.68846237 17.53190495 11.45005925 15.99804216 10.25 14.4375 C7.74236852 11.21144125 5.21298211 8.05533462 2.5 5 C0 2 0 2 0 0 Z " fill="#73AE71" transform="translate(50,66)"/>
<path d="M0 0 C6.27 0 12.54 0 19 0 C18.01 6.27 17.02 12.54 16 19 C9.48358381 13.56965318 4.75169065 7.92389209 0 1 C0 0.67 0 0.34 0 0 Z " fill="#6EA585" transform="translate(76,44)"/>
<path d="M0 0 C6.27 0 12.54 0 19 0 C18.71125 2.3925 18.4225 4.785 18.125 7.25 C18.03879395 7.99668945 17.95258789 8.74337891 17.86376953 9.51269531 C17.41489996 13.04101893 16.87059979 15.95045077 15 19 C12.22712353 16.3523502 9.81378547 13.4551407 7.375 10.5 C6.57835938 9.5409375 5.78171875 8.581875 4.9609375 7.59375 C3 5 3 5 2 2 C1.34 2 0.68 2 0 2 C0 1.34 0 0.68 0 0 Z " fill="#628FA7" transform="translate(120,44)"/>
<path d="M0 0 C6.27 0 12.54 0 19 0 C18.01 6.27 17.02 12.54 16 19 C11.44762557 15.20635465 8.42590369 12.53428429 5 8 C5 7.34 5 6.68 5 6 C4.34 6 3.68 6 3 6 C2.01 4.02 1.02 2.04 0 0 Z " fill="#73AD72" transform="translate(54,44)"/>
<path d="M0 0 C6.27 0 12.54 0 19 0 C16.99107143 14.33035714 16.99107143 14.33035714 16 19 C12.43897774 16.31372363 9.62916846 13.56731437 6.875 10.0625 C5.88113281 8.81146484 5.88113281 8.81146484 4.8671875 7.53515625 C3 5 3 5 0 0 Z " fill="#679A99" transform="translate(98,44)"/>
<path d="M0 0 C6.27 0 12.54 0 19 0 C18.01 5.94 17.02 11.88 16 18 C11.57015566 15.78507783 9.0760487 13.82460432 6.5625 9.5625 C5.02392813 6.81286977 5.02392813 6.81286977 2.3125 4.3125 C1.549375 3.549375 0.78625 2.78625 0 2 C0 1.34 0 0.68 0 0 Z " fill="#66989A" transform="translate(102,22)"/>
<path d="M0 0 C6.27 0 12.54 0 19 0 C16.99107143 14.46428571 16.99107143 14.46428571 16 18 C15.01 18 14.02 18 13 18 C12.67 17.01 12.34 16.02 12 15 C11.0246803 13.97591432 10.01801357 12.98165594 9 12 C5.59626939 8.07261853 2.92942813 4.39414219 0 0 Z " fill="#618DA9" transform="translate(124,22)"/>
<path d="M0 0 C6.27 0 12.54 0 19 0 C18.01 5.94 17.02 11.88 16 18 C11.42730974 15.71365487 10.0047845 14.00637934 7 10 C7 9.34 7 8.68 7 8 C6.34 8 5.68 8 5 8 C2.525 4.04 2.525 4.04 0 0 Z " fill="#6CA388" transform="translate(80,22)"/>
<path d="M0 0 C5.94 0 11.88 0 18 0 C17.690625 2.59875 17.38125 5.1975 17.0625 7.875 C16.96718994 8.69210449 16.87187988 9.50920898 16.77368164 10.35107422 C16.11111111 15.77777778 16.11111111 15.77777778 15 18 C14.34 18 13.68 18 13 18 C11.6697891 16.48772933 10.40972409 14.91330976 9.1875 13.3125 C6.91634376 10.3835772 4.71771497 7.58553624 2 5.0625 C0 3 0 3 0 0 Z " fill="#72AD71" transform="translate(35,155)"/>
<path d="M0 0 C6.27 0 12.54 0 19 0 C16.99107143 14.46428571 16.99107143 14.46428571 16 18 C12.21938819 16.73979606 11.38120484 15.15730123 9 12 C6.61261202 9.1066755 4.22193382 6.21613951 1.828125 3.328125 C0 1 0 1 0 0 Z " fill="#6BA18E" transform="translate(86,112)"/>
<path d="M0 0 C6.27 0 12.54 0 19 0 C18.01 5.94 17.02 11.88 16 18 C12.46885711 16.23442855 11.4549304 15.69278449 9.23828125 12.8125 C8.75939453 12.19632813 8.28050781 11.58015625 7.78710938 10.9453125 C7.05717773 9.98238281 7.05717773 9.98238281 6.3125 9 C5.81427734 8.35804687 5.31605469 7.71609375 4.80273438 7.0546875 C1.17353403 2.34706805 1.17353403 2.34706805 0 0 Z " fill="#73AE71" transform="translate(42,112)"/>
<path d="M0 0 C6.27 0 12.54 0 19 0 C18.01 5.94 17.02 11.88 16 18 C11.94246399 15.97123199 10.64304819 14.52406425 8 11 C7.34 10.34 6.68 9.68 6 9 C3.93761063 6.03999039 1.98150939 3.01534037 0 0 Z " fill="#72AC73" transform="translate(58,22)"/>
<path d="M0 0 C5.94 0 11.88 0 18 0 C17.48032304 6.23612352 16.67411767 11.9731764 15 18 C12.95880212 16.38405168 10.95927063 14.7143618 9 13 C9 12.34 9 11.68 9 11 C8.34 11 7.68 11 7 11 C5.52734375 9.35546875 5.52734375 9.35546875 3.9375 7.1875 C3.41027344 6.47980469 2.88304687 5.77210938 2.33984375 5.04296875 C1 3 1 3 0 0 Z " fill="#72AD73" transform="translate(57,155)"/>
<path d="M0 0 C6.27 0 12.54 0 19 0 C17.875 10.125 17.875 10.125 16.9375 14.0625 C16.76089844 14.81660156 16.58429688 15.57070312 16.40234375 16.34765625 C16.26957031 16.89292969 16.13679688 17.43820313 16 18 C15.34 18 14.68 18 14 18 C12.1084693 15.78581383 10.32350321 13.56433016 8.5625 11.25 C8.07201172 10.61578125 7.58152344 9.9815625 7.07617188 9.328125 C4.69094016 6.23794626 2.34229842 3.12306457 0 0 Z " fill="#6595A0" transform="translate(108,112)"/>
<path d="M0 0 C6.27 0 12.54 0 19 0 C18.01 5.94 17.02 11.88 16 18 C12.16903737 16.72301246 11.07202253 14.94834519 8.5625 11.8125 C7.80066406 10.87019531 7.03882812 9.92789063 6.25390625 8.95703125 C4.04646935 6.06096585 2.01989889 3.02984834 0 0 Z " fill="#71AB79" transform="translate(64,112)"/>
<path d="M0 0 C0.66 0.33 1.32 0.66 2 1 C2 2.65 2 4.3 2 6 C2.33 5.67 2.66 5.34 3 5 C4.99958364 4.95919217 7.00045254 4.95745644 9 5 C10.60724454 8.21448908 10.46661659 11.51370745 10 15 C8.4375 18 8.4375 18 6 20 C2.3125 20.375 2.3125 20.375 -1 20 C-2 19 -2 19 -2.1875 15.625 C-2.13918372 10.31020958 -1.06846651 5.18969447 0 0 Z " fill="#6DA585" transform="translate(429,142)"/>
<path d="M0 0 C0.99 0 1.98 0 3 0 C3.67286212 2.41509441 4.33846012 4.83180356 5 7.25 C5.19078125 7.93191406 5.3815625 8.61382812 5.578125 9.31640625 C6.49957044 12.70600912 7 15.45778976 7 19 C6.34 19 5.68 19 5 19 C4.67 17.68 4.34 16.36 4 15 C1.03 15 -1.94 15 -5 15 C-5.66 16.32 -6.32 17.64 -7 19 C-7.66 18.67 -8.32 18.34 -9 18 C-6.03 12.06 -3.06 6.12 0 0 Z " fill="#EAF0F1" transform="translate(472,143)"/>
<path d="M0 0 C4.29 0 8.58 0 13 0 C12.125 9.625 12.125 9.625 11 13 C7.63512219 11.59127675 5.94290543 10.00344528 3.8125 7.0625 C3.30332031 6.37285156 2.79414063 5.68320312 2.26953125 4.97265625 C1 3 1 3 0 0 Z " fill="#5D85AF" transform="translate(146,24)"/>
<path d="M0 0 C4.29 0 8.58 0 13 0 C12.25 10.75 12.25 10.75 10 13 C6.07523398 9.29950632 3.01551157 5.48018862 0 1 C0 0.67 0 0.34 0 0 Z " fill="#608AA9" transform="translate(130,113)"/>
<path d="M0 0 C4.29 0 8.58 0 13 0 C12.34 4.29 11.68 8.58 11 13 C7.51762536 11.83920845 6.98418684 10.93131619 4.9375 8 C2.92046147 4.98371816 2.92046147 4.98371816 0 3 C0 2.01 0 1.02 0 0 Z " fill="#5C82B2" transform="translate(151,91)"/>
<path d="M0 0 C4.29 0 8.58 0 13 0 C12.25 10.75 12.25 10.75 10 13 C6.07523398 9.29950632 3.01551157 5.48018862 0 1 C0 0.67 0 0.34 0 0 Z " fill="#5F89AA" transform="translate(134,91)"/>
<path d="M0 0 C4.29 0 8.58 0 13 0 C12.34 4.29 11.68 8.58 11 13 C9.68 12.34 8.36 11.68 7 11 C7 10.34 7 9.68 7 9 C6.34 9 5.68 9 5 9 C2.82796 6.03812728 1.16438003 3.49314009 0 0 Z " fill="#689B93" transform="translate(97,69)"/>
<path d="M0 0 C4.29 0 8.58 0 13 0 C12.34 4.29 11.68 8.58 11 13 C7.25497567 11.75165856 6.23515724 10.13825974 3.8125 7.0625 C3.09707031 6.16660156 2.38164062 5.27070312 1.64453125 4.34765625 C0 2 0 2 0 0 Z " fill="#5C80B3" transform="translate(155,69)"/>
<path d="M0 0 C4.29 0 8.58 0 13 0 C12.34 4.29 11.68 8.58 11 13 C10.34 13 9.68 13 9 13 C9 12.34 9 11.68 9 11 C8.34 11 7.68 11 7 11 C5.2734375 9.1015625 5.2734375 9.1015625 3.375 6.625 C2.42753906 5.40683594 2.42753906 5.40683594 1.4609375 4.1640625 C0 2 0 2 0 0 Z " fill="#6391A4" transform="translate(119,69)"/>
<path d="M0 0 C4.29 0 8.58 0 13 0 C12.25 9.625 12.25 9.625 10 13 C8.51511559 11.40112446 7.03726855 9.79571095 5.5625 8.1875 C4.32693359 6.84751953 4.32693359 6.84751953 3.06640625 5.48046875 C1 3 1 3 0 0 Z " fill="#5E88AE" transform="translate(138,69)"/>
<path d="M0 0 C4.29 0 8.58 0 13 0 C12.19642857 9.10714286 12.19642857 9.10714286 10 13 C9.59007812 12.50628906 9.18015625 12.01257812 8.7578125 11.50390625 C8.21898437 10.86324219 7.68015625 10.22257812 7.125 9.5625 C6.59132812 8.92441406 6.05765625 8.28632812 5.5078125 7.62890625 C4.0777243 5.89194996 4.0777243 5.89194996 2 5 C1.34 3.35 0.68 1.7 0 0 Z " fill="#5D84AD" transform="translate(142,47)"/>
<path d="M0 0 C3.96 0 7.92 0 12 0 C12.19294408 4.82360189 11.75747614 8.49646738 10 13 C5.125 8.375 5.125 8.375 4 5 C3.34 5 2.68 5 2 5 C1.34 3.35 0.68 1.7 0 0 Z " fill="#5A7DB2" transform="translate(159,47)"/>
<path d="M0 0 C0.9075 0.103125 1.815 0.20625 2.75 0.3125 C3.08 1.9625 3.41 3.6125 3.75 5.3125 C0.30930376 7.60629749 -0.97290301 8.3125 -5.25 8.3125 C-4.92 9.9625 -4.59 11.6125 -4.25 13.3125 C-0.785 12.8175 -0.785 12.8175 2.75 12.3125 C2.75 12.9725 2.75 13.6325 2.75 14.3125 C-0.01250036 15.69375018 -2.19731099 15.50329306 -5.25 15.3125 C-7.25 13.3125 -7.25 13.3125 -7.625 9.5 C-7.53354363 6.36190319 -7.18207027 5.18709127 -5.625 2.3125 C-3.25 0.3125 -3.25 0.3125 0 0 Z " fill="#DAE3E9" transform="translate(531.25,146.6875)"/>
<path d="M0 0 C0.66 0.33 1.32 0.66 2 1 C2 2.65 2 4.3 2 6 C2.33 5.67 2.66 5.34 3 5 C4.99958364 4.95919217 7.00045254 4.95745644 9 5 C10.60724454 8.21448908 10.46661659 11.51370745 10 15 C8.4375 18 8.4375 18 6 20 C2.3125 20.375 2.3125 20.375 -1 20 C-2 19 -2 19 -2.1875 15.625 C-2.13918372 10.31020958 -1.06846651 5.18969447 0 0 Z M1 8 C-0.1577506 11.47325181 -0.06866652 14.36067448 0 18 C2.475 18.495 2.475 18.495 5 19 C7.98514628 14.89542386 8.2954439 12.02254631 8 7 C4.51418144 5.7979936 4.32007656 5.78661563 1 8 Z " fill="#E1ECE7" transform="translate(429,142)"/>
<path d="M0 0 C0.36923077 7.38461538 0.36923077 7.38461538 -1.5 10.5 C-1.995 10.995 -2.49 11.49 -3 12 C-4.65 11.67 -6.3 11.34 -8 11 C-8.35095944 7.22718603 -8.24849965 5.40824943 -6.25 2.125 C-4 0 -4 0 0 0 Z " fill="#638E9E" transform="translate(504,148)"/>
<path d="M0 0 C1.32 0.33 2.64 0.66 4 1 C4 1.66 4 2.32 4 3 C4.66 3 5.32 3 6 3 C6 2.01 6 1.02 6 0 C7.32 0 8.64 0 10 0 C10 2.97 10 5.94 10 9 C9.0925 8.814375 8.185 8.62875 7.25 8.4375 C3.8491925 7.77576292 3.8491925 7.77576292 0 9 C0 6.03 0 3.06 0 0 Z " fill="#050506" transform="translate(536,66)"/>
<path d="M0 0 C0.23492361 5.75562843 -0.00363358 10.56544696 -2 16 C-4 18 -4 18 -5.9453125 18.1953125 C-7.96354167 18.13020833 -9.98177083 18.06510417 -12 18 C-12 17.34 -12 16.68 -12 16 C-10.576875 16.061875 -10.576875 16.061875 -9.125 16.125 C-5.89755144 16.34973818 -5.89755144 16.34973818 -4 14 C-5.4540625 14.0309375 -5.4540625 14.0309375 -6.9375 14.0625 C-10 14 -10 14 -11 13 C-11.52829961 8.7302999 -11.70979336 5.16406111 -9.4375 1.4375 C-6.17847619 -0.4844884 -3.71510114 -0.28577701 0 0 Z M-8.25 3.125 C-10.24849965 6.40824943 -10.35095944 8.22718603 -10 12 C-7.525 12.495 -7.525 12.495 -5 13 C-3.09598862 11.09598862 -2.06479561 9.66574314 -1.80078125 6.953125 C-1.8113422 4.96766727 -1.90084957 2.9830086 -2 1 C-6.03113367 0.54225098 -6.03113367 0.54225098 -8.25 3.125 Z " fill="#DFE8EB" transform="translate(506,147)"/>
<path d="M0 0 C0.66 0 1.32 0 2 0 C2.66 3.3 3.32 6.6 4 10 C6.56166801 7.43833199 7.44554406 6.44696024 8.6875 3.3125 C9.120625 2.219375 9.55375 1.12625 10 0 C10.91881757 2.50122561 11.13154862 3.6498301 10.1796875 6.18359375 C7.52795345 10.76458341 4.97027574 14.48347006 1 18 C0.34 17.67 -0.32 17.34 -1 17 C-0.484375 16.67 0.03125 16.34 0.5625 16 C2.39850896 13.89254531 2.39850896 13.89254531 1.75 10.1875 C1.51477934 8.78910022 1.26497166 7.39306881 1 6 C0.7215625 4.2675 0.7215625 4.2675 0.4375 2.5 C0.293125 1.675 0.14875 0.85 0 0 Z " fill="#D9E7E1" transform="translate(442,147)"/>
<path d="M0 0 C0.33 0 0.66 0 1 0 C1.33 3.63 1.66 7.26 2 11 C-0.31 11 -2.62 11 -5 11 C-3.77782954 6.95743617 -2.37245704 3.50711041 0 0 Z " fill="#6E9D9B" transform="translate(473,145)"/>
<path d="M0 0 C0.33 1.32 0.66 2.64 1 4 C2.32 4.33 3.64 4.66 5 5 C3.68 5 2.36 5 1 5 C0.67 9.29 0.34 13.58 0 18 C0.99 18.33 1.98 18.66 3 19 C1.35 18.67 -0.3 18.34 -2 18 C-1.67 13.71 -1.34 9.42 -1 5 C-1.66 4.67 -2.32 4.34 -3 4 C-2.01 4 -1.02 4 0 4 C0 2.68 0 1.36 0 0 Z " fill="#E8EEF2" transform="translate(540,143)"/>
<path d="M0 0 C2.31 0 4.62 0 7 0 C7 0.66 7 1.32 7 2 C6.34 2 5.68 2 5 2 C5 4.31 5 6.62 5 9 C4.01 9 3.02 9 2 9 C2 6.69 2 4.38 2 2 C1.34 2 0.68 2 0 2 C0 1.34 0 0.68 0 0 Z " fill="#050505" transform="translate(528,66)"/>
<path d="M0 0 C1.99954746 -0.04254356 4.00041636 -0.04080783 6 0 C7 1 7 1 7.1328125 2.890625 C7.11902627 7.0540674 7.04793541 10.93925029 6 15 C5.34 14.67 4.68 14.34 4 14 C4 10.04 4 6.08 4 2 C2.35 2 0.7 2 -1 2 C-0.67 1.34 -0.34 0.68 0 0 Z " fill="#DFE7EC" transform="translate(514,147)"/>
<path d="M0 0 C0.66 0 1.32 0 2 0 C1.85879286 1.93784265 1.71187127 3.87526955 1.5625 5.8125 C1.48128906 6.89144531 1.40007812 7.97039062 1.31640625 9.08203125 C1 12 1 12 0 15 C-0.66 15 -1.32 15 -2 15 C-1.85816304 13.24967156 -1.71136571 11.49974466 -1.5625 9.75 C-1.48128906 8.77546875 -1.40007812 7.8009375 -1.31640625 6.796875 C-1.04925416 4.43538247 -0.64628032 2.28098935 0 0 Z " fill="#D4E1E3" transform="translate(490,147)"/>
<path d="M0 0 C2.50356732 3.75535098 1.9608592 4.86889414 1.125 9.1875 C0.92132813 10.27417969 0.71765625 11.36085937 0.5078125 12.48046875 C0.34023438 13.31191406 0.17265625 14.14335937 0 15 C-0.66 15 -1.32 15 -2 15 C-1.85930804 12.87465341 -1.71229079 10.74972471 -1.5625 8.625 C-1.48128906 7.44164062 -1.40007812 6.25828125 -1.31640625 5.0390625 C-1 2 -1 2 0 0 Z " fill="#DCE5EA" transform="translate(511,147)"/>
<path d="M0 0 C1.32 0 2.64 0 4 0 C4 1.32 4 2.64 4 4 C1.69 4.66 -0.62 5.32 -3 6 C-2.42655063 3.13275314 -2.1385485 2.1385485 0 0 Z " fill="#5F83A6" transform="translate(529,148)"/>
</svg>
